<svg xmlns="http://www.w3.org/2000/svg" width="18" height="18"><g fill="none"><path fill="#000" fill-opacity=".5" d="M12 12h5v5h-5zM4 4h1v1H4zM1 8h1v1H1zM3 8h1v1H3zM3 9h1v1H3zM5 9h1v1H5zM6 8h1v1H6zM7 8h1v1H7zM8 6h1v1H8zM9 5h1v1H9zM9 4h1v1H9zM9 2h1v1H9zM8 1h1v1H8zM9 8h1v1H9zM8 9h1v1H8zM8 10h1v1H8zM9 11h1v1H9zM8 13h1v1H8zM8 15h1v1H8zM9 16h1v1H9zM10 16h1v1h-1zM10 15h1v1h-1zM10 9h1v1h-1zM11 14h1v1h-1zM11 13h1v1h-1zM10 12h1v1h-1zM9 13h1v1H9zM11 10h1v1h-1zM11 9h1v1h-1zM16 8h1v1h-1zM13 10h1v1h-1zM12 11h1v1h-1zM15 10h1v1h-1zM15 9h1v1h-1zM14 8h1v1h-1zM16 10h1v1h-1zM16 11h1v1h-1zM13 9h1v1h-1zM11 8h1v1h-1zM13 4h1v1h-1zM4 13h1v1H4z"/><path stroke="#000" stroke-opacity=".5" stroke-width="2" d="M2 11h5v5H2zM2 2h5v5H2zM11 2h5v5h-5z"/></g></svg>